<svg width="16" height="16" viewBox="0 0 16 16" fill="none" xmlns="http://www.w3.org/2000/svg">
<path d="M2 3.41406C2 2.7237 2.57563 2.16406 3.28571 2.16406H5.85714C6.56696 2.16406 7.14286 2.7237 7.14286 3.41406V7.58073C7.14286 8.27083 6.56696 8.83073 5.85714 8.83073H3.28571C2.57563 8.83073 2 8.27083 2 7.58073V3.41406ZM3.28571 7.58073H5.85714V3.41406H3.28571V7.58073ZM8.85714 8.41406C8.85714 7.72396 9.43304 7.16406 10.1429 7.16406H12.7143C13.4241 7.16406 14 7.72396 14 8.41406V12.5807C14 13.2708 13.4241 13.8307 12.7143 13.8307H10.1429C9.43304 13.8307 8.85714 13.2708 8.85714 12.5807V8.41406ZM10.1429 12.5807H12.7143V8.41406H10.1429V12.5807ZM5.85714 9.66406C6.56696 9.66406 7.14286 10.224 7.14286 10.9141V12.5807C7.14286 13.2708 6.56696 13.8307 5.85714 13.8307H3.28571C2.57563 13.8307 2 13.2708 2 12.5807V10.9141C2 10.224 2.57563 9.66406 3.28571 9.66406H5.85714ZM5.85714 10.9141H3.28571V12.5807H5.85714V10.9141ZM8.85714 3.41406C8.85714 2.7237 9.43304 2.16406 10.1429 2.16406H12.7143C13.4241 2.16406 14 2.7237 14 3.41406V5.08073C14 5.77083 13.4241 6.33073 12.7143 6.33073H10.1429C9.43304 6.33073 8.85714 5.77083 8.85714 5.08073V3.41406ZM10.1429 5.08073H12.7143V3.41406H10.1429V5.08073Z" fill="#1077BC"/>
</svg>
