<svg width="16" height="16" viewBox="0 0 16 16" fill="none" xmlns="http://www.w3.org/2000/svg">
<path d="M8.00033 1.66797C4.50277 1.66797 1.66699 4.50477 1.66699 8.0013C1.66699 11.4999 4.50277 14.3346 8.00033 14.3346C11.4979 14.3346 14.3337 11.4999 14.3337 8.0013C14.3337 4.50477 11.4979 1.66797 8.00033 1.66797ZM8.00033 13.1088C5.1776 13.1088 2.8928 10.825 2.8928 8.0013C2.8928 5.17952 5.1777 2.89378 8.00033 2.89378C10.822 2.89378 13.1079 5.17865 13.1079 8.0013C13.1079 10.824 10.824 13.1088 8.00033 13.1088ZM10.7391 6.59162C10.7391 8.30397 8.88962 8.33033 8.88962 8.96313V9.12496C8.88962 9.2942 8.75241 9.43141 8.58317 9.43141H7.41745C7.24822 9.43141 7.111 9.2942 7.111 9.12496V8.90383C7.111 7.99098 7.80307 7.62608 8.32606 7.33285C8.77452 7.08144 9.04939 6.91044 9.04939 6.57748C9.04939 6.13705 8.48758 5.84472 8.0334 5.84472C7.4412 5.84472 7.16782 6.12505 6.78353 6.61006C6.67993 6.74082 6.49087 6.7651 6.35792 6.6643L5.64736 6.12551C5.51694 6.02663 5.48773 5.84291 5.57984 5.70764C6.18322 4.82164 6.95175 4.32388 8.14829 4.32388C9.40145 4.32388 10.7391 5.30208 10.7391 6.59162V6.59162ZM9.07291 10.8615C9.07291 11.4529 8.59175 11.9341 8.00033 11.9341C7.4089 11.9341 6.92774 11.4529 6.92774 10.8615C6.92774 10.2701 7.4089 9.78894 8.00033 9.78894C8.59175 9.78894 9.07291 10.2701 9.07291 10.8615Z" fill="#9EAEBD"/>
</svg>
