<svg width="16" height="16" viewBox="0 0 16 16" fill="none" xmlns="http://www.w3.org/2000/svg">
<path d="M13.1784 7.51611L14.0174 7.04667C14.2658 6.90772 14.3862 6.62423 14.3119 6.35578C14.0114 5.26964 13.4202 4.2988 12.624 3.52628C12.4217 3.32995 12.1082 3.29016 11.8603 3.42896L11.0228 3.89778C10.7507 3.70908 10.4604 3.54641 10.1559 3.41205V2.47347C10.1559 2.33828 10.1098 2.20689 10.0248 2.09971C9.93976 1.99254 9.82058 1.91559 9.68579 1.88084C8.58541 1.59719 7.41666 1.59684 6.31492 1.88082C6.03775 1.95227 5.84474 2.19547 5.84474 2.47344V3.41203C5.54025 3.54638 5.24994 3.70905 4.97787 3.89775L4.14036 3.42893C3.89241 3.29014 3.57898 3.32992 3.37662 3.52626C2.58045 4.29877 1.98922 5.26959 1.68873 6.35575C1.61445 6.6242 1.73487 6.9077 1.98324 7.04665L2.82228 7.51611C2.79014 7.83883 2.79014 8.16379 2.82228 8.48651L1.98324 8.95595C1.73487 9.0949 1.61445 9.37839 1.68873 9.64684C1.98922 10.733 2.58045 11.7038 3.37662 12.4763C3.57898 12.6727 3.89241 12.7125 4.14036 12.5737L4.97787 12.1048C5.24993 12.2935 5.54025 12.4562 5.84474 12.5905V13.5291C5.84475 13.6643 5.89086 13.7957 5.97587 13.9029C6.06089 14.0101 6.18007 14.087 6.31486 14.1218C7.41524 14.4054 8.58399 14.4058 9.68573 14.1218C9.9629 14.0503 10.1559 13.8071 10.1559 13.5292V12.5906C10.4604 12.4562 10.7507 12.2936 11.0228 12.1049L11.8603 12.5737C12.1082 12.7125 12.4217 12.6727 12.624 12.4764C13.4202 11.7038 14.0114 10.733 14.3119 9.64687C14.3862 9.37842 14.2658 9.09492 14.0174 8.95597L13.1784 8.48654C13.2105 8.16349 13.2105 7.83916 13.1784 7.51611ZM11.7903 9.12547L12.9449 9.77129C12.7372 10.3149 12.4356 10.8204 12.053 11.266L10.8981 10.6196C10.0554 11.3193 9.93221 11.3877 8.89117 11.744V13.0362C8.30154 13.1338 7.69911 13.1338 7.10948 13.0362V11.744C6.06858 11.3878 5.94494 11.319 5.1025 10.6196L3.94764 11.266C3.56504 10.8204 3.26343 10.3149 3.05574 9.77129L4.21034 9.12547C4.00929 8.07079 4.00919 7.93237 4.21034 6.87718L3.05574 6.23136C3.26258 5.68922 3.56454 5.18306 3.94764 4.73667L5.1025 5.383C5.94526 4.68334 6.06847 4.61488 7.10948 4.2586V2.96645C7.69911 2.86889 8.30154 2.86889 8.89117 2.96645V4.25863C9.93207 4.61488 10.0557 4.68362 10.8981 5.38302L12.053 4.73669C12.4356 5.1823 12.7372 5.68774 12.9449 6.23138L11.7903 6.87721C11.9914 7.93191 11.9915 8.07028 11.7903 9.12547ZM8.00033 5.54971C6.60552 5.54971 5.47079 6.64949 5.47079 8.00132C5.47079 9.35316 6.60552 10.4529 8.00033 10.4529C9.39513 10.4529 10.5299 9.35316 10.5299 8.00132C10.5299 6.64949 9.39513 5.54971 8.00033 5.54971ZM8.00033 9.22713C7.30291 9.22713 6.73556 8.67725 6.73556 8.00132C6.73556 7.32542 7.30291 6.77552 8.00033 6.77552C8.69774 6.77552 9.26509 7.32542 9.26509 8.00132C9.26509 8.67725 8.69774 9.22713 8.00033 9.22713Z" fill="#1077BC"/>
</svg>
