<svg width="16" height="16" viewBox="0 0 16 16" fill="none" xmlns="http://www.w3.org/2000/svg">
<g clip-path="url(#clip0_16542_111738)">
<path d="M13.257 9.50717L10.9555 8.52045C10.4537 8.30292 9.86234 8.44758 9.52109 8.87084L8.87797 9.65599C7.82844 9.05248 6.9493 8.17357 6.34672 7.14584L7.13305 6.50178C7.55281 6.15912 7.69766 5.57131 7.48508 5.07092L6.49297 2.73912C6.25484 2.19537 5.66469 1.89865 5.08977 2.03154L2.95109 2.52514C2.39141 2.6531 2 3.14459 2 3.72021C2 9.38974 6.61016 13.9999 12.2797 13.9999C12.8553 13.9999 13.3468 13.6087 13.4539 13.05L13.9475 10.9092C14.1031 10.3322 13.8031 9.74154 13.257 9.50717ZM12.8727 10.6556L12.3784 12.798C12.3674 12.8238 12.3289 12.8749 12.2795 12.8749C7.23104 12.8749 3.12479 8.76867 3.12479 3.72024C3.12479 3.67116 3.15519 3.63272 3.20316 3.62173L5.34395 3.12767C5.35127 3.12584 5.35896 3.1251 5.36628 3.1251C5.40692 3.1251 5.44501 3.14964 5.46113 3.18625L6.44879 5.49086C6.46637 5.53225 6.45465 5.58058 6.41949 5.6095L5.27656 6.52592C5.07441 6.69143 5.01289 6.97451 5.12787 7.20889C5.90155 8.78459 7.19647 10.08 8.77241 10.8534C8.98569 10.9684 9.29014 10.9069 9.45584 10.7047L10.3936 9.55934C10.4196 9.52639 10.4683 9.51392 10.5089 9.53297L12.8119 10.5195C12.8562 10.5595 12.882 10.6087 12.8727 10.6556Z" fill="#1077BC"/>
</g>
<defs>
<clipPath id="clip0_16542_111738">
<rect width="12" height="12" fill="white" transform="translate(2 2)"/>
</clipPath>
</defs>
</svg>
