<svg width="128" height="128" viewBox="0 0 128 128" fill="none" xmlns="http://www.w3.org/2000/svg">
<rect width="128" height="128" fill="#005EFF"/>
<path fill-rule="evenodd" clip-rule="evenodd" d="M94.6513 72.4246C95.5867 72.8771 96.6112 73.1033 97.7247 73.1033C99.0386 73.1033 100.208 72.834 101.232 72.2953C102.257 71.7352 103.092 70.9056 103.738 69.8068V76.5313H101.758C101.177 76.5313 100.887 77.21 101.298 77.6076L105.493 81.6695C105.747 81.9157 106.162 81.9157 106.416 81.6695L110.611 77.6076C111.023 77.21 110.732 76.5313 110.151 76.5313H108.214V55.8452H104.306V58.7862C103.66 57.8166 102.825 57.041 101.8 56.4592C100.776 55.8559 99.5954 55.5542 98.2592 55.5542C97.1011 55.5542 96.021 55.7805 95.0188 56.233C94.0167 56.6854 93.1481 57.3103 92.4132 58.1074C91.6782 58.8831 91.0991 59.7988 90.676 60.8545C90.2752 61.9102 90.0747 63.0521 90.0747 64.2803C90.0747 65.5084 90.264 66.6611 90.6426 67.7384C91.0213 68.7941 91.5446 69.7206 92.2127 70.5178C92.9031 71.315 93.7159 71.9506 94.6513 72.4246ZM105.494 76.5313C105.488 76.5146 105.481 76.5157 105.472 76.5313H105.494ZM101.9 68.6434C101.188 69.1604 100.353 69.419 99.3949 69.419C98.6823 69.419 98.0365 69.2896 97.4574 69.0312C96.8784 68.7726 96.3773 68.417 95.9542 67.9646C95.5533 67.5122 95.2304 66.9843 94.9854 66.381C94.7627 65.7778 94.6513 65.1206 94.6513 64.4096C94.6513 63.7416 94.7627 63.0953 94.9854 62.4705C95.2304 61.8456 95.5533 61.2962 95.9542 60.8222C96.3773 60.3266 96.8673 59.9388 97.4241 59.6587C98.0031 59.3787 98.6378 59.2386 99.3281 59.2386C99.7959 59.2386 100.264 59.3248 100.731 59.4971C101.199 59.6695 101.633 59.9173 102.034 60.2405C102.435 60.5421 102.78 60.8976 103.07 61.307C103.381 61.7164 103.604 62.158 103.738 62.6321V66.6396C103.226 67.4583 102.613 68.1262 101.9 68.6434Z" fill="white"/>
<path d="M34.6367 71.2934C33.7681 71.8105 32.8327 72.2199 31.8306 72.5215C30.8284 72.8016 29.7595 72.9417 28.6236 72.9417C26.8865 72.9417 25.3053 72.6078 23.88 71.9398C22.4769 71.2719 21.2632 70.3993 20.2388 69.322C19.2366 68.2447 18.4571 67.0058 17.9003 65.6054C17.3436 64.2049 17.0652 62.7721 17.0652 61.3069C17.0652 59.7772 17.3547 58.3121 17.9337 56.9116C18.535 55.5112 19.3479 54.2723 20.3724 53.195C21.4191 52.1177 22.6551 51.2666 24.0804 50.6419C25.5058 49.9955 27.0535 49.6723 28.7239 49.6723C30.4387 49.6723 31.9976 50.017 33.4007 50.7065C34.826 51.3744 36.0398 52.2578 37.0419 53.3566C38.0441 54.4554 38.8236 55.7051 39.3803 57.1056C39.9371 58.5061 40.2155 59.9281 40.2155 61.3717C40.2155 62.8583 39.9371 64.2803 39.3803 65.6377C38.8459 66.995 38.0886 68.2016 37.1087 69.2574L40.3491 72.7801H36.0063L34.6367 71.2934ZM28.6571 68.9988C29.2584 68.9988 29.8151 68.9342 30.3274 68.8048C30.8619 68.6541 31.3518 68.4601 31.7972 68.2232L28.1894 64.2803H32.5321L34.1691 66.0578C34.6144 65.3683 34.9597 64.6142 35.2047 63.7955C35.4496 62.9768 35.5721 62.1473 35.5721 61.3069C35.5721 60.3159 35.405 59.357 35.071 58.4306C34.7592 57.5041 34.3026 56.6854 33.7013 55.9744C33.1223 55.2634 32.3986 54.6924 31.53 54.2616C30.6837 53.8306 29.726 53.6152 28.6571 53.6152C27.5435 53.6152 26.5525 53.8414 25.6839 54.2938C24.8154 54.7248 24.0916 55.3065 23.5125 56.039C22.9335 56.7716 22.4881 57.6011 22.1763 58.5276C21.8868 59.4325 21.742 60.359 21.742 61.3069C21.742 62.2981 21.8979 63.2568 22.2097 64.1833C22.5215 65.1098 22.9669 65.9286 23.5459 66.6396C24.1472 67.3506 24.871 67.9215 25.7173 68.3524C26.5859 68.7833 27.5658 68.9988 28.6571 68.9988Z" fill="white"/>
<path d="M48.6299 73.1033C46.8259 73.1033 45.4563 72.543 44.5209 71.4227C43.5855 70.3023 43.1179 68.6434 43.1179 66.4456V55.8452H47.5943V65.5084C47.5943 68.1155 48.5631 69.419 50.5006 69.419C51.3692 69.419 52.2043 69.1711 53.006 68.6756C53.8301 68.1586 54.4982 67.3828 55.0104 66.3487V55.8452H59.4868V67.803C59.4868 68.2554 59.5648 68.5786 59.7206 68.7726C59.8988 68.9664 60.1772 69.0742 60.5557 69.0958V72.7801C60.1104 72.8662 59.7318 72.9201 59.42 72.9417C59.1305 72.9632 58.8632 72.974 58.6182 72.974C57.8165 72.974 57.1595 72.8016 56.6472 72.4569C56.1573 72.0906 55.8678 71.5951 55.7788 70.9702L55.6785 69.6128C54.899 70.7763 53.8969 71.6489 52.672 72.2307C51.4471 72.8124 50.0997 73.1033 48.6299 73.1033Z" fill="white"/>
<path d="M63.9353 72.7801V55.8452H68.4117V72.7801H63.9353ZM63.9353 53.4859V49.1875H68.4117V53.4859H63.9353Z" fill="white"/>
<path d="M71.3474 64.3126C71.3474 63.1276 71.559 62.0072 71.9822 60.9515C72.4053 59.8957 73.0177 58.9692 73.8195 58.1721C74.6213 57.3749 75.59 56.7393 76.7258 56.2652C77.8615 55.7913 79.1421 55.5542 80.5675 55.5542C82.4828 55.5542 84.1085 55.9529 85.4447 56.75C86.8033 57.5472 87.8165 58.5922 88.4847 59.8849L84.1085 61.1777C83.7299 60.5528 83.2289 60.0789 82.6053 59.7557C81.9817 59.4109 81.2912 59.2386 80.5341 59.2386C79.8882 59.2386 79.2869 59.3679 78.7301 59.6264C78.1733 59.8634 77.6834 60.2081 77.2603 60.6606C76.8594 61.0915 76.5365 61.6194 76.2915 62.2443C76.0688 62.869 75.9575 63.5585 75.9575 64.3126C75.9575 65.0667 76.08 65.7561 76.325 66.381C76.5699 67.0058 76.8928 67.5444 77.2937 67.997C77.7169 68.4494 78.2068 68.8049 78.7636 69.0634C79.3204 69.3005 79.9105 69.419 80.5341 69.419C81.3359 69.419 82.0708 69.225 82.7389 68.8372C83.4292 68.4494 83.908 67.9754 84.1753 67.4152L88.5515 68.708C87.9502 70.0007 86.9591 71.0564 85.5784 71.8752C84.1976 72.6939 82.5384 73.1033 80.6009 73.1033C79.1756 73.1033 77.895 72.8662 76.7591 72.3923C75.6234 71.9183 74.6546 71.2826 73.8529 70.4854C73.0511 69.6667 72.4275 68.7295 71.9822 67.6738C71.559 66.5965 71.3474 65.4761 71.3474 64.3126Z" fill="white"/>
</svg>
