<svg width="128" height="128" viewBox="0 0 128 128" fill="none" xmlns="http://www.w3.org/2000/svg">
<rect width="128" height="128" fill="#005EFF"/>
<path fill-rule="evenodd" clip-rule="evenodd" d="M98.8872 73.0567C99.9562 73.5738 101.127 73.8323 102.4 73.8323C103.901 73.8323 105.238 73.5245 106.408 72.9089C107.579 72.2687 108.534 71.3207 109.272 70.0649V77.7501H107.009C106.345 77.7501 106.013 78.5257 106.483 78.9801L111.278 83.6223C111.568 83.9037 112.042 83.9037 112.333 83.6223L117.127 78.9801C117.597 78.5257 117.265 77.7501 116.602 77.7501H114.388V54.1087H109.921V57.4699C109.183 56.3618 108.228 55.4754 107.057 54.8105C105.887 54.121 104.538 53.7762 103.01 53.7762C101.687 53.7762 100.452 54.0349 99.3072 54.552C98.1618 55.069 97.1692 55.7831 96.3293 56.6942C95.4893 57.5806 94.8275 58.6271 94.344 59.8337C93.8859 61.0403 93.6568 62.3453 93.6568 63.7489C93.6568 65.1524 93.8731 66.4698 94.3058 67.701C94.7385 68.9076 95.3366 69.9664 96.1002 70.8775C96.8892 71.7885 97.8182 72.5149 98.8872 73.0567ZM111.278 77.7501C111.272 77.7309 111.264 77.7322 111.254 77.7501H111.278ZM107.172 68.7352C106.357 69.3262 105.403 69.6217 104.308 69.6217C103.494 69.6217 102.756 69.4739 102.094 69.1785C101.432 68.8829 100.86 68.4766 100.376 67.9595C99.9181 67.4425 99.5489 66.8392 99.2689 66.1497C99.0145 65.4603 98.8872 64.7092 98.8872 63.8966C98.8872 63.1333 99.0145 62.3946 99.2689 61.6805C99.5489 60.9664 99.9181 60.3385 100.376 59.7968C100.86 59.2304 101.42 58.7872 102.056 58.4671C102.718 58.147 103.443 57.987 104.232 57.987C104.767 57.987 105.301 58.0854 105.836 58.2824C106.37 58.4794 106.866 58.7626 107.325 59.1319C107.783 59.4767 108.177 59.8829 108.508 60.3509C108.864 60.8187 109.119 61.3234 109.272 61.8652V66.4452C108.686 67.3809 107.986 68.1442 107.172 68.7352Z" fill="white"/>
<path d="M30.2991 71.7639C29.3065 72.3548 28.2375 72.8228 27.0922 73.1674C25.9468 73.4875 24.7252 73.6476 23.4271 73.6476C21.4418 73.6476 19.6347 73.266 18.0058 72.5026C16.4023 71.7393 15.0151 70.742 13.8443 69.5108C12.699 68.2797 11.8082 66.8638 11.1719 65.2632C10.5356 63.6627 10.2174 62.0253 10.2174 60.3508C10.2174 58.6025 10.5483 56.9281 11.21 55.3276C11.8972 53.727 12.8263 52.3111 13.9971 51.08C15.1933 49.8488 16.6059 48.8761 18.2348 48.1621C19.8638 47.4234 21.6326 47.054 23.5416 47.054C25.5014 47.054 27.283 47.448 28.8866 48.236C30.5155 48.9993 31.9027 50.0088 33.048 51.2646C34.1933 52.5204 35.0842 53.9487 35.7204 55.5492C36.3567 57.1498 36.675 58.7749 36.675 60.4247C36.675 62.1237 36.3567 63.7489 35.7204 65.3002C35.1096 66.8514 34.2442 68.2304 33.1243 69.437L36.8276 73.4629H31.8644L30.2991 71.7639ZM23.4653 69.1415C24.1525 69.1415 24.7887 69.0676 25.3742 68.9198C25.9851 68.7475 26.5449 68.5258 27.054 68.255L22.9307 63.7489H27.8939L29.7647 65.7803C30.2737 64.9923 30.6682 64.1305 30.9482 63.1949C31.2281 62.2592 31.3681 61.3112 31.3681 60.3508C31.3681 59.2182 31.1772 58.1223 30.7955 57.0636C30.4391 56.0047 29.9174 55.069 29.2301 54.2564C28.5684 53.4439 27.7413 52.7913 26.7486 52.2989C25.7814 51.8063 24.687 51.5602 23.4653 51.5602C22.1926 51.5602 21.06 51.8187 20.0674 52.3358C19.0748 52.8283 18.2476 53.4931 17.5858 54.3303C16.9241 55.1675 16.415 56.1155 16.0587 57.1744C15.7278 58.2085 15.5624 59.2674 15.5624 60.3508C15.5624 61.4835 15.7405 62.5792 16.0969 63.6381C16.4532 64.6969 16.9622 65.6326 17.624 66.4452C18.3112 67.2578 19.1384 67.9103 20.1056 68.4027C21.0982 68.8952 22.2181 69.1415 23.4653 69.1415Z" fill="white"/>
<path d="M46.2914 73.8323C44.2297 73.8323 42.6644 73.192 41.5954 71.9116C40.5264 70.6312 39.992 68.7353 39.992 66.2235V54.1088H45.1078V65.1524C45.1078 68.132 46.215 69.6217 48.4293 69.6217C49.422 69.6217 50.3764 69.3384 51.2926 68.7721C52.2344 68.1812 52.998 67.2947 53.5834 66.1128V54.1088H58.6993V67.7749C58.6993 68.2919 58.7884 68.6613 58.9665 68.883C59.1701 69.1045 59.4882 69.2277 59.9209 69.2523V73.4629C59.4119 73.5614 58.9793 73.623 58.6229 73.6476C58.292 73.6722 57.9866 73.6846 57.7066 73.6846C56.7904 73.6846 56.0395 73.4876 55.4541 73.0936C54.8942 72.675 54.5633 72.1087 54.4615 71.3946L54.347 69.8432C53.4561 71.1729 52.3108 72.1702 50.9109 72.835C49.511 73.4999 47.9711 73.8323 46.2914 73.8323Z" fill="white"/>
<path d="M63.7832 73.463V54.1088H68.8991V73.463H63.7832ZM63.7832 51.4125V46.5H68.8991V51.4125H63.7832Z" fill="white"/>
<path d="M72.2543 63.7858C72.2543 62.4315 72.4961 61.1511 72.9797 59.9445C73.4633 58.738 74.1632 57.6791 75.0795 56.768C75.9958 55.857 77.1029 55.1306 78.401 54.5888C79.699 54.0471 81.1626 53.7762 82.7916 53.7762C84.9804 53.7762 86.8384 54.2318 88.3655 55.1429C89.9182 56.0539 91.0762 57.2482 91.8398 58.7256L86.8384 60.2031C86.4058 59.4889 85.8331 58.9473 85.1204 58.5779C84.4078 58.1839 83.6187 57.987 82.7533 57.987C82.0152 57.987 81.328 58.1347 80.6917 58.4302C80.0554 58.701 79.4955 59.095 79.0119 59.6121C78.5537 60.1046 78.1847 60.7079 77.9047 61.422C77.6502 62.136 77.5229 62.924 77.5229 63.7858C77.5229 64.6476 77.6629 65.4356 77.9429 66.1497C78.2228 66.8638 78.5919 67.4793 79.05 67.9965C79.5337 68.5136 80.0936 68.9198 80.7299 69.2153C81.3662 69.4862 82.0407 69.6217 82.7533 69.6217C83.6697 69.6217 84.5095 69.4 85.2731 68.9568C86.0621 68.5136 86.6093 67.9719 86.9148 67.3316L91.9162 68.8091C91.229 70.2864 90.0963 71.493 88.5183 72.4288C86.9402 73.3645 85.044 73.8323 82.8297 73.8323C81.2008 73.8323 79.7372 73.5614 78.4391 73.0197C77.1412 72.478 76.0339 71.7515 75.1177 70.8405C74.2014 69.9048 73.4887 68.8337 72.9797 67.6271C72.4961 66.396 72.2543 65.1155 72.2543 63.7858Z" fill="white"/>
</svg>
